<?xml version="1.0" encoding="UTF-8" standalone="no"?>
<!-- Created with Inkscape (http://www.inkscape.org/) -->

<svg
   xmlns:dc="http://purl.org/dc/elements/1.1/"
   xmlns:cc="http://creativecommons.org/ns#"
   xmlns:rdf="http://www.w3.org/1999/02/22-rdf-syntax-ns#"
   xmlns:svg="http://www.w3.org/2000/svg"
   xmlns="http://www.w3.org/2000/svg"
   xmlns:sodipodi="http://sodipodi.sourceforge.net/DTD/sodipodi-0.dtd"
   xmlns:inkscape="http://www.inkscape.org/namespaces/inkscape"
   width="100"
   height="100"
   viewBox="0 0 26.458333 26.458334"
   version="1.1"
   id="svg4707"
   inkscape:version="0.92.1 r15371"
   sodipodi:docname="donut.svg">
  <defs
     id="defs4702" />
  <sodipodi:namedview
     id="base"
     pagecolor="#ffffff"
     bordercolor="#666666"
     borderopacity="1.0"
     inkscape:pageopacity="0.0"
     inkscape:pageshadow="2"
     inkscape:zoom="2.8"
     inkscape:cx="155.92033"
     inkscape:cy="95.000747"
     inkscape:document-units="mm"
     showgrid="false"
     inkscape:window-width="1920"
     inkscape:window-height="1017"
     inkscape:window-x="-8"
     inkscape:window-y="-8"
     inkscape:window-maximized="1"
     inkscape:current-layer="svg4707"
     units="px"
     showguides="true"
     inkscape:guide-bbox="true" />
  <metadata
     id="metadata4705">
    <rdf:RDF>
      <cc:Work
         rdf:about="">
        <dc:format>image/svg+xml</dc:format>
        <dc:type
           rdf:resource="http://purl.org/dc/dcmitype/StillImage" />
        <dc:title></dc:title>
      </cc:Work>
    </rdf:RDF>
  </metadata>
  <g
     transform="translate(-93.989716,-111.02206)"
     id="g4574">
    <circle
       style="fill:#ee8b30;fill-opacity:1;stroke-width:0.27807134"
       id="circle4533"
       cx="107.31338"
       cy="124.53471"
       r="9" />
    <circle
       style="fill:#ffffff;fill-opacity:1;stroke:#ffffff;stroke-width:0;stroke-miterlimit:4;stroke-dasharray:none;stroke-opacity:1"
       id="circle4535"
       cx="107.31338"
       cy="124.53471"
       r="7.5" />
    <circle
       style="fill:#ee8b30;fill-opacity:1;stroke-width:0.10537634"
       id="circle4537"
       cx="107.31338"
       cy="124.53471"
       r="3.5" />
    <circle
       style="fill:#ffffff;fill-opacity:1;stroke-width:0.30771086"
       id="circle4539"
       cx="107.31338"
       cy="124.53471"
       r="2.5" />
    <path
       inkscape:connector-curvature="0"
       id="path4550"
       d="m 106.47056,131.94527 c -3.51281,-0.44083 -6.20957,-3.1972 -6.567123,-6.71231 -0.307734,-3.02531 1.338193,-6.00581 4.075803,-7.38059 1.13623,-0.5706 2.04445,-0.77231 3.44109,-0.76423 0.92342,0.005 1.15711,0.0296 1.71518,0.17789 1.36268,0.36215 2.50649,1.01388 3.47181,1.97818 0.97012,0.9691 1.60597,2.08493 1.98167,3.4776 0.15504,0.57468 0.17242,0.75854 0.17104,1.809 -0.001,1.04633 -0.0199,1.23801 -0.17602,1.8226 -0.33703,1.26184 -1.02817,2.48606 -1.91133,3.38553 -1.35344,1.37843 -3.07567,2.14529 -5.01848,2.23458 -0.38587,0.0177 -0.91851,0.005 -1.18364,-0.0283 z"
       style="opacity:0;fill:#ee8b30;fill-opacity:1;stroke:#ffffff;stroke-width:0;stroke-linejoin:miter;stroke-miterlimit:4;stroke-dasharray:none;stroke-opacity:1" />
    <path
       inkscape:connector-curvature="0"
       id="path4552"
       d="m 106.47056,131.94527 c -3.51281,-0.44083 -6.20957,-3.1972 -6.567123,-6.71231 -0.307734,-3.02531 1.338193,-6.00581 4.075803,-7.38059 1.13623,-0.5706 2.04445,-0.77231 3.44109,-0.76423 0.92342,0.005 1.15711,0.0296 1.71518,0.17789 1.36268,0.36215 2.50649,1.01388 3.47181,1.97818 0.97012,0.9691 1.60597,2.08493 1.98167,3.4776 0.15504,0.57468 0.17242,0.75854 0.17104,1.809 -0.001,1.04633 -0.0199,1.23801 -0.17602,1.8226 -0.33703,1.26184 -1.02817,2.48606 -1.91133,3.38553 -1.35344,1.37843 -3.07567,2.14529 -5.01848,2.23458 -0.38587,0.0177 -0.91851,0.005 -1.18364,-0.0283 z"
       style="opacity:0;fill:#ee8b30;fill-opacity:1;stroke:#ffffff;stroke-width:0;stroke-linejoin:miter;stroke-miterlimit:4;stroke-dasharray:none;stroke-opacity:1" />
    <path
       inkscape:connector-curvature="0"
       id="path4554"
       d="m 106.47056,131.94527 c -3.51281,-0.44083 -6.20957,-3.1972 -6.567123,-6.71231 -0.307734,-3.02531 1.338193,-6.00581 4.075803,-7.38059 1.13623,-0.5706 2.04445,-0.77231 3.44109,-0.76423 0.92342,0.005 1.15711,0.0296 1.71518,0.17789 1.36268,0.36215 2.50649,1.01388 3.47181,1.97818 0.97012,0.9691 1.60597,2.08493 1.98167,3.4776 0.15504,0.57468 0.17242,0.75854 0.17104,1.809 -0.001,1.04633 -0.0199,1.23801 -0.17602,1.8226 -0.33703,1.26184 -1.02817,2.48606 -1.91133,3.38553 -1.35344,1.37843 -3.07567,2.14529 -5.01848,2.23458 -0.38587,0.0177 -0.91851,0.005 -1.18364,-0.0283 z"
       style="opacity:0;fill:#ee8b30;fill-opacity:1;stroke:#ffffff;stroke-width:0;stroke-linejoin:miter;stroke-miterlimit:4;stroke-dasharray:none;stroke-opacity:1" />
    <path
       inkscape:connector-curvature="0"
       id="path4556"
       d="m 106.47056,131.94527 c -3.51281,-0.44083 -6.20957,-3.1972 -6.567123,-6.71231 -0.307734,-3.02531 1.338193,-6.00581 4.075803,-7.38059 1.13623,-0.5706 2.04445,-0.77231 3.44109,-0.76423 0.92342,0.005 1.15711,0.0296 1.71518,0.17789 1.36268,0.36215 2.50649,1.01388 3.47181,1.97818 0.97012,0.9691 1.60597,2.08493 1.98167,3.4776 0.15504,0.57468 0.17242,0.75854 0.17104,1.809 -0.001,1.04633 -0.0199,1.23801 -0.17602,1.8226 -0.33703,1.26184 -1.02817,2.48606 -1.91133,3.38553 -1.35344,1.37843 -3.07567,2.14529 -5.01848,2.23458 -0.38587,0.0177 -0.91851,0.005 -1.18364,-0.0283 z"
       style="opacity:0;fill:#ee8b30;fill-opacity:1;stroke:#ffffff;stroke-width:0;stroke-linejoin:miter;stroke-miterlimit:4;stroke-dasharray:none;stroke-opacity:1" />
    <path
       inkscape:connector-curvature="0"
       id="path4558"
       d="m 106.47056,131.94527 c -3.51281,-0.44083 -6.20957,-3.1972 -6.567123,-6.71231 -0.307734,-3.02531 1.338193,-6.00581 4.075803,-7.38059 1.13623,-0.5706 2.04445,-0.77231 3.44109,-0.76423 0.92342,0.005 1.15711,0.0296 1.71518,0.17789 1.36268,0.36215 2.50649,1.01388 3.47181,1.97818 0.97012,0.9691 1.60597,2.08493 1.98167,3.4776 0.15504,0.57468 0.17242,0.75854 0.17104,1.809 -0.001,1.04633 -0.0199,1.23801 -0.17602,1.8226 -0.33703,1.26184 -1.02817,2.48606 -1.91133,3.38553 -1.35344,1.37843 -3.07567,2.14529 -5.01848,2.23458 -0.38587,0.0177 -0.91851,0.005 -1.18364,-0.0283 z"
       style="opacity:0;fill:#ee8b30;fill-opacity:1;stroke:#ffffff;stroke-width:0;stroke-linejoin:miter;stroke-miterlimit:4;stroke-dasharray:none;stroke-opacity:1" />
    <path
       inkscape:connector-curvature="0"
       id="path4560"
       d="m 106.75353,126.93545 c -0.64361,-0.16245 -1.35265,-0.7255 -1.63882,-1.30141 -0.19505,-0.39253 -0.30212,-0.99719 -0.25018,-1.41291 0.0614,-0.49179 0.44357,-1.23207 0.78828,-1.52713 0.15312,-0.13107 0.4447,-0.31998 0.64794,-0.41979 0.32327,-0.15877 0.44899,-0.18149 1.00429,-0.18149 0.54772,0 0.68677,0.0244 1.01397,0.17777 1.7083,0.80082 1.97041,3.08407 0.48384,4.21477 -0.18068,0.13743 -0.46381,0.29688 -0.62918,0.35435 -0.37689,0.13097 -1.09024,0.17911 -1.42014,0.0958 z"
       style="opacity:0;fill:#ee8b30;fill-opacity:1;stroke:#ffffff;stroke-width:0;stroke-linejoin:miter;stroke-miterlimit:4;stroke-dasharray:none;stroke-opacity:1" />
  </g>
</svg>
